<svg xmlns="http://www.w3.org/2000/svg" xmlns:xlink="http://www.w3.org/1999/xlink" version="1.1" width="256" height="256" viewBox="0 0 256 256" xml:space="preserve">
<g style="stroke: none; stroke-width: 0; stroke-dasharray: none; stroke-linecap: butt; stroke-linejoin: miter; stroke-miterlimit: 10; fill: none; fill-rule: nonzero; opacity: 1;" transform="translate(1.4065934065934016 1.4065934065934016) scale(2.81 2.81)">
	<path d="M 63.773 1.064 c -2.676 -0.316 -5.101 1.598 -5.417 4.274 l -3.614 25.838 V 19.66 c 0 -2.695 -2.184 -4.879 -4.879 -4.879 s -4.879 2.184 -4.879 4.879 c 0 -2.695 -2.184 -4.879 -4.879 -4.879 c -2.695 0 -4.879 2.184 -4.879 4.879 v 9.325 c -0.254 0.12 -0.504 0.244 -0.75 0.371 l 0.001 -0.001 L 31.643 5.308 c -0.316 -2.676 -2.741 -4.589 -5.417 -4.274 h 0 c -2.676 0.316 -4.589 2.741 -4.274 5.417 l 3.884 31.328 c -4.818 8.995 -2.054 20.559 6.796 23.647 V 89 h 27.435 V 61.197 h 0 c 2.622 -1.427 3.824 -4.205 3.824 -7.4 l 0.577 -16.96 l 3.58 -30.357 C 68.363 3.804 66.449 1.379 63.773 1.064 z" style="stroke: none; stroke-width: 1; stroke-dasharray: none; stroke-linecap: butt; stroke-linejoin: miter; stroke-miterlimit: 10; fill: rgb(249,208,180); fill-rule: nonzero; opacity: 1;" transform=" matrix(1 0 0 1 0 0) " stroke-linecap="round"/>
	<path d="M 25.841 38.83 c -0.497 0 -0.928 -0.371 -0.991 -0.877 l -3.89 -31.379 c -0.185 -1.565 0.25 -3.103 1.222 -4.336 c 0.973 -1.233 2.367 -2.013 3.927 -2.197 c 1.558 -0.186 3.097 0.25 4.33 1.223 c 1.233 0.973 2.013 2.367 2.197 3.927 l 2.835 24.046 c 0.064 0.548 -0.328 1.045 -0.876 1.11 c -0.551 0.065 -1.046 -0.327 -1.11 -0.876 L 30.65 5.426 c -0.121 -1.029 -0.636 -1.949 -1.449 -2.591 c -0.813 -0.641 -1.826 -0.927 -2.857 -0.807 c -1.029 0.121 -1.949 0.636 -2.591 1.449 c -0.642 0.813 -0.928 1.828 -0.807 2.857 l 3.889 31.373 c 0.068 0.548 -0.321 1.047 -0.869 1.115 C 25.924 38.827 25.883 38.83 25.841 38.83 z" style="stroke: none; stroke-width: 1; stroke-dasharray: none; stroke-linecap: butt; stroke-linejoin: miter; stroke-miterlimit: 10; fill: rgb(0,0,0); fill-rule: nonzero; opacity: 1;" transform=" matrix(1 0 0 1 0 0) " stroke-linecap="round"/>
	<path d="M 35.228 29.985 c -0.552 0 -1 -0.448 -1 -1 v -9.326 c 0 -3.242 2.637 -5.879 5.879 -5.879 s 5.879 2.637 5.879 5.879 c 0 0.552 -0.448 1 -1 1 s -1 -0.448 -1 -1 c 0 -2.139 -1.74 -3.879 -3.879 -3.879 s -3.879 1.74 -3.879 3.879 v 9.326 C 36.228 29.537 35.78 29.985 35.228 29.985 z" style="stroke: none; stroke-width: 1; stroke-dasharray: none; stroke-linecap: butt; stroke-linejoin: miter; stroke-miterlimit: 10; fill: rgb(0,0,0); fill-rule: nonzero; opacity: 1;" transform=" matrix(1 0 0 1 0 0) " stroke-linecap="round"/>
	<path d="M 56.049 63.216 c -0.553 0 -1 -0.447 -1 -1 s 0.447 -1 1 -1 c 3.965 0 6.842 -3.12 6.842 -7.419 l 0.578 -16.993 l 3.586 -30.44 c 0.25 -2.124 -1.274 -4.056 -3.398 -4.307 c -2.111 -0.252 -4.055 1.273 -4.307 3.398 l -3.616 25.859 c -0.076 0.546 -0.58 0.933 -1.129 0.852 c -0.547 -0.076 -0.928 -0.582 -0.852 -1.129 l 3.613 -25.838 c 0.378 -3.197 3.306 -5.509 6.524 -5.128 c 3.22 0.38 5.529 3.308 5.15 6.527 l -3.58 30.357 l -0.571 16.876 C 64.89 59.167 61.09 63.216 56.049 63.216 z" style="stroke: none; stroke-width: 1; stroke-dasharray: none; stroke-linecap: butt; stroke-linejoin: miter; stroke-miterlimit: 10; fill: rgb(0,0,0); fill-rule: nonzero; opacity: 1;" transform=" matrix(1 0 0 1 0 0) " stroke-linecap="round"/>
	<path d="M 37.482 63.216 c -7.862 0 -13.676 -5.275 -14.81 -13.439 c -1.198 -8.624 3.317 -19.552 16.061 -23.162 c 2.867 -0.796 5.468 0.193 6.963 2.648 c 1.803 2.958 1.347 6.875 -1.108 9.524 c -2.452 2.486 -5.591 4.493 -9.901 6.336 c -0.506 0.216 -1.095 -0.019 -1.312 -0.526 c -0.217 -0.507 0.019 -1.095 0.526 -1.312 c 4.063 -1.738 6.999 -3.606 9.242 -5.879 c 2.041 -2.204 1.976 -5.247 0.846 -7.102 c -1.019 -1.671 -2.738 -2.314 -4.715 -1.763 c -11.589 3.283 -15.703 13.167 -14.62 20.961 c 0.75 5.404 4.561 11.715 12.828 11.715 c 0.552 0 1 0.447 1 1 S 38.034 63.216 37.482 63.216 z" style="stroke: none; stroke-width: 1; stroke-dasharray: none; stroke-linecap: butt; stroke-linejoin: miter; stroke-miterlimit: 10; fill: rgb(0,0,0); fill-rule: nonzero; opacity: 1;" transform=" matrix(1 0 0 1 0 0) " stroke-linecap="round"/>
	<path d="M 46.415 54.678 c -0.545 0 -0.992 -0.437 -1 -0.984 c -0.069 -4.519 -2.625 -7.737 -8.047 -10.129 c -0.505 -0.223 -0.734 -0.813 -0.511 -1.319 c 0.223 -0.505 0.813 -0.732 1.319 -0.511 c 6.136 2.707 9.158 6.609 9.239 11.928 c 0.008 0.553 -0.433 1.007 -0.984 1.016 C 46.425 54.678 46.42 54.678 46.415 54.678 z" style="stroke: none; stroke-width: 1; stroke-dasharray: none; stroke-linecap: butt; stroke-linejoin: miter; stroke-miterlimit: 10; fill: rgb(0,0,0); fill-rule: nonzero; opacity: 1;" transform=" matrix(1 0 0 1 0 0) " stroke-linecap="round"/>
	<path d="M 60.067 90 H 32.632 c -0.552 0 -1 -0.447 -1 -1 V 61.427 c 0 -0.553 0.448 -1 1 -1 c 0.552 0 1 0.447 1 1 V 88 h 25.435 V 61.197 c 0 -0.553 0.447 -1 1 -1 s 1 0.447 1 1 V 89 C 61.067 89.552 60.62 90 60.067 90 z" style="stroke: none; stroke-width: 1; stroke-dasharray: none; stroke-linecap: butt; stroke-linejoin: miter; stroke-miterlimit: 10; fill: rgb(0,0,0); fill-rule: nonzero; opacity: 1;" transform=" matrix(1 0 0 1 0 0) " stroke-linecap="round"/>
	<path d="M 49.864 39.002 c -2.263 0 -4.286 -1.267 -5.281 -3.306 c -0.109 -0.225 -0.131 -0.482 -0.06 -0.722 c 0.45 -1.521 0.298 -3.147 -0.417 -4.461 c -0.08 -0.147 -0.122 -0.311 -0.122 -0.478 V 19.659 c 0 -3.242 2.638 -5.879 5.879 -5.879 s 5.879 2.637 5.879 5.879 v 13.464 C 55.743 36.365 53.105 39.002 49.864 39.002 z M 46.551 35.132 c 0.701 1.162 1.941 1.87 3.313 1.87 c 2.139 0 3.879 -1.74 3.879 -3.879 V 19.659 c 0 -2.139 -1.74 -3.879 -3.879 -3.879 s -3.879 1.74 -3.879 3.879 V 29.79 C 46.786 31.402 46.987 33.314 46.551 35.132 z" style="stroke: none; stroke-width: 1; stroke-dasharray: none; stroke-linecap: butt; stroke-linejoin: miter; stroke-miterlimit: 10; fill: rgb(0,0,0); fill-rule: nonzero; opacity: 1;" transform=" matrix(1 0 0 1 0 0) " stroke-linecap="round"/>
	<path d="M 61.212 79.631 c -9.499 2.708 -19.254 2.708 -29.265 0 V 65.417 c 9.675 2.548 19.43 2.548 29.265 0 V 79.631 z" style="stroke: none; stroke-width: 1; stroke-dasharray: none; stroke-linecap: butt; stroke-linejoin: miter; stroke-miterlimit: 10; fill: rgb(117,117,117); fill-rule: nonzero; opacity: 1;" transform=" matrix(1 0 0 1 0 0) " stroke-linecap="round"/>
	<path d="M 46.77 82.653 c -4.977 0 -10.016 -0.686 -15.085 -2.058 c -0.436 -0.117 -0.739 -0.513 -0.739 -0.965 V 65.417 c 0 -0.311 0.144 -0.603 0.39 -0.792 c 0.245 -0.19 0.563 -0.257 0.865 -0.175 c 9.463 2.491 19.139 2.491 28.759 -0.001 c 0.298 -0.078 0.617 -0.013 0.863 0.177 c 0.244 0.189 0.388 0.481 0.388 0.791 v 14.214 c 0 0.446 -0.296 0.839 -0.726 0.962 C 56.668 81.965 51.751 82.653 46.77 82.653 z M 32.947 78.86 c 9.277 2.385 18.441 2.39 27.265 0.01 V 66.695 c -9.119 2.165 -18.279 2.164 -27.265 0.005 V 78.86 z M 61.212 79.631 h 0.01 H 61.212 z" style="stroke: none; stroke-width: 1; stroke-dasharray: none; stroke-linecap: butt; stroke-linejoin: miter; stroke-miterlimit: 10; fill: rgb(0,0,0); fill-rule: nonzero; opacity: 1;" transform=" matrix(1 0 0 1 0 0) " stroke-linecap="round"/>
	<path d="M 48.835 75.742 c 0 0 6.689 2.787 6.769 2.548 c 0.08 -0.239 -1.962 -6.848 -1.962 -6.848 C 51.025 71.681 49.39 73.076 48.835 75.742 z" style="stroke: none; stroke-width: 1; stroke-dasharray: none; stroke-linecap: butt; stroke-linejoin: miter; stroke-miterlimit: 10; fill: rgb(209,209,209); fill-rule: nonzero; opacity: 1;" transform=" matrix(1 0 0 1 0 0) " stroke-linecap="round"/>
	<path d="M 44.324 75.742 c 0 0 -6.689 2.787 -6.769 2.548 c -0.08 -0.239 1.962 -6.848 1.962 -6.848 C 42.134 71.681 43.769 73.076 44.324 75.742 z" style="stroke: none; stroke-width: 1; stroke-dasharray: none; stroke-linecap: butt; stroke-linejoin: miter; stroke-miterlimit: 10; fill: rgb(209,209,209); fill-rule: nonzero; opacity: 1;" transform=" matrix(1 0 0 1 0 0) " stroke-linecap="round"/>
	<path d="M 55.628 79.304 c -0.562 0 -1.937 -0.455 -7.178 -2.64 c -0.442 -0.185 -0.692 -0.657 -0.594 -1.127 c 0.635 -3.049 2.604 -4.809 5.694 -5.092 c 0.466 -0.04 0.907 0.25 1.046 0.701 c 2.136 6.915 2.076 7.096 1.956 7.457 c -0.087 0.266 -0.292 0.491 -0.546 0.606 C 55.897 79.26 55.802 79.304 55.628 79.304 z M 50.029 75.154 c 1.523 0.628 3.077 1.247 4.177 1.662 c -0.32 -1.123 -0.791 -2.7 -1.268 -4.258 C 51.468 72.884 50.523 73.726 50.029 75.154 z" style="stroke: none; stroke-width: 1; stroke-dasharray: none; stroke-linecap: butt; stroke-linejoin: miter; stroke-miterlimit: 10; fill: rgb(0,0,0); fill-rule: nonzero; opacity: 1;" transform=" matrix(1 0 0 1 0 0) " stroke-linecap="round"/>
	<path d="M 37.531 79.304 c -0.175 0 -0.271 -0.044 -0.38 -0.094 c -0.253 -0.115 -0.456 -0.34 -0.544 -0.604 c -0.125 -0.373 -0.182 -0.543 1.955 -7.46 c 0.14 -0.451 0.578 -0.743 1.047 -0.701 c 3.089 0.283 5.059 2.043 5.694 5.092 c 0.098 0.47 -0.151 0.942 -0.594 1.127 C 39.469 78.848 38.093 79.304 37.531 79.304 z M 40.22 72.558 c -0.477 1.558 -0.947 3.135 -1.268 4.258 c 1.1 -0.414 2.654 -1.034 4.177 -1.662 C 42.636 73.726 41.691 72.884 40.22 72.558 z" style="stroke: none; stroke-width: 1; stroke-dasharray: none; stroke-linecap: butt; stroke-linejoin: miter; stroke-miterlimit: 10; fill: rgb(0,0,0); fill-rule: nonzero; opacity: 1;" transform=" matrix(1 0 0 1 0 0) " stroke-linecap="round"/>
	<path d="M 59.559 75.535 c 0 0 6.257 -0.86 6.211 -1.075 s -4.499 -4.279 -4.499 -4.279 C 59.412 71.516 58.8 73.286 59.559 75.535 z" style="stroke: none; stroke-width: 1; stroke-dasharray: none; stroke-linecap: butt; stroke-linejoin: miter; stroke-miterlimit: 10; fill: rgb(209,209,209); fill-rule: nonzero; opacity: 1;" transform=" matrix(1 0 0 1 0 0) " stroke-linecap="round"/>
	<path d="M 59.558 76.535 c -0.423 0 -0.808 -0.27 -0.946 -0.68 c -0.889 -2.63 -0.17 -4.873 2.077 -6.487 c 0.382 -0.275 0.908 -0.247 1.257 0.074 c 4.692 4.282 4.723 4.427 4.803 4.812 c 0.057 0.271 -0.004 0.564 -0.163 0.791 c -0.292 0.417 -0.413 0.589 -6.891 1.479 C 59.649 76.532 59.604 76.535 59.558 76.535 z M 61.24 71.507 c -0.83 0.815 -1.136 1.765 -0.938 2.915 c 1.266 -0.181 2.538 -0.375 3.495 -0.536 C 63.097 73.223 62.17 72.36 61.24 71.507 z" style="stroke: none; stroke-width: 1; stroke-dasharray: none; stroke-linecap: butt; stroke-linejoin: miter; stroke-miterlimit: 10; fill: rgb(0,0,0); fill-rule: nonzero; opacity: 1;" transform=" matrix(1 0 0 1 0 0) " stroke-linecap="round"/>
	<path d="M 33.599 75.535 c 0 0 -6.257 -0.86 -6.211 -1.075 s 4.499 -4.279 4.499 -4.279 C 33.747 71.516 34.359 73.286 33.599 75.535 z" style="stroke: none; stroke-width: 1; stroke-dasharray: none; stroke-linecap: butt; stroke-linejoin: miter; stroke-miterlimit: 10; fill: rgb(209,209,209); fill-rule: nonzero; opacity: 1;" transform=" matrix(1 0 0 1 0 0) " stroke-linecap="round"/>
	<path d="M 33.6 76.535 c -0.045 0 -0.091 -0.003 -0.137 -0.01 c -6.477 -0.891 -6.598 -1.062 -6.891 -1.479 c -0.16 -0.228 -0.221 -0.523 -0.163 -0.795 c 0.079 -0.372 0.112 -0.527 4.802 -4.809 c 0.349 -0.319 0.874 -0.35 1.258 -0.074 c 2.247 1.614 2.965 3.857 2.077 6.487 C 34.408 76.265 34.024 76.535 33.6 76.535 z M 29.362 73.885 c 0.957 0.161 2.229 0.355 3.495 0.536 c 0.197 -1.15 -0.108 -2.1 -0.938 -2.915 C 30.989 72.36 30.061 73.223 29.362 73.885 z" style="stroke: none; stroke-width: 1; stroke-dasharray: none; stroke-linecap: butt; stroke-linejoin: miter; stroke-miterlimit: 10; fill: rgb(0,0,0); fill-rule: nonzero; opacity: 1;" transform=" matrix(1 0 0 1 0 0) " stroke-linecap="round"/>
</g>
</svg>